<!-- Generator: Adobe Illustrator 18.0.0, SVG Export Plug-In  -->
<svg version="1.1"
	 xmlns="http://www.w3.org/2000/svg" xmlns:xlink="http://www.w3.org/1999/xlink" xmlns:a="http://ns.adobe.com/AdobeSVGViewerExtensions/3.0/"
	 x="0px" y="0px" width="350.6px" height="161.5px" viewBox="0 0 350.6 161.5" enable-background="new 0 0 350.6 161.5"
	 xml:space="preserve">
<defs>
</defs>
<path d="M31.9,77c4-13.3,31.5-10.2,31.5,10.2c0,18.7-16.6,26.6-29.8,26.1c-17.7-0.7-36-11.9-33.4-34.9c2.3-20.6,21-28,31.7-28.3
	c0.8,0,4.9,0.2,1.3,0c-13-1-26.8-13.4-23.6-29.7C13,3.8,32.2-3.4,47.3,1.5c13,4.2,18.4,21.3,8.8,31.3c-5.7,5.9-12.1,2.8-12.1,2.8
	l1.4-5.3c0,0,5.4,0.4,7.3-6.4c1.6-6-1.3-11.7-8.7-14.1c-9.1-2.9-20.7,1.5-21.7,16.2c-0.8,11.3,8.2,19,20.4,19.7
	c3.4,0.2,5.5,0.3,7.8-0.2c4.2-0.9-0.5,8.4-6,9.5C39,56,18.1,58.5,14.9,77.4c-2.6,15.2,8.9,26.1,20.3,27.7c7.3,1,17.6-2.5,19.3-12.3
	c2.2-12.6-13-19.3-18.7-9.7C34.1,86,30.1,83.1,31.9,77z"/>
<path d="M78.8,7.9C74.4,12.7,72,19.7,72,30.2c0,17.5-0.9,90.4-1.1,103.5c-0.4,23.8-16.5,24-20.3,14.8c-3.3-7.8,2.3-21.5,15.7-23.3
	c2.8-0.4,1.9-6,0.6-6c-10.1,0.1-27.9,11.4-24.3,28.4c2.7,13,17.8,18.7,29.1,9.1c8.5-7.3,8.8-16.4,9.4-24c1.4-17.8,3-78.1,3-102.7
	c0-5,0.1-11.2,1.6-14C92.2,3.9,111,9.7,105,24.4c-3.2,7.7-15.4,7.1-15.4,7.1s-3.5,6.2-0.3,6.4c4.4,0.2,18.8,0.5,23.7-10.5
	C122.7,5.4,94.3-9.3,78.8,7.9z"/>
<path d="M140.3,103.9c-0.9-0.5-1.3-2-1.3-2.8c3-28.1,1.1-43.2,1.1-43.2s7.6-4.5,11.1-2.6c3.5,2,0.5,36.1,0.1,44
	C151.1,103.4,141.2,104.4,140.3,103.9z"/>
<path d="M177.2,100.8c-0.2-6.4,0.6-34.7,0.6-34.7c2.1-24.2-27.1-1.3-27.1-1.3l1,4.2c0,0,13.4-10.3,14-4.2c0.6,6.1-0.5,31.5-0.5,38.3
	C165.2,106.2,177.3,102.7,177.2,100.8z"/>
<path d="M221.2,86.1c-0.6-2.1-13.5,11.7-17.8,9.9c-5.7-2.3-1.3-14.1-0.3-25.3c1.1-13.5-3.8-14.1-3.8-14.1
	C187,52.9,175.1,66,175.1,66l0.5,3.3c0,0,8.9-9.4,14-4.5c5.1,4.9-6.7,37.4,6.8,39.5C208.6,106.2,222.3,90.3,221.2,86.1z"/>
<path d="M331.6,56.2c-1.3-0.4-3.2,1-3.2,1c-1.1,6.7-6.1,26.3-3.9,37.9c0.8,4.3,3.3,8,6.7,9c8.4,2.4,17.9-5.4,19.3-10
	c0.4-1.3-2.4-3.3-3.5-2.2c-2.9,3.1-6.3,6.8-11.4,4.9c-5.7-2.2,0.5-22,1.7-33.2C337.7,60.5,336.3,57.7,331.6,56.2z"/>
<path d="M109.9,85.4c1-0.2,22.4-4.2,22.4-18c0-12.5-15-11.8-15-11.8s-21.7,0.8-21.5,26c0.2,23,24.7,31.2,44.7,13.4
	c0,0,3.3-7.1-0.3-5.1c-6.5,3.6-28.6,16.2-30.7-7.6s13-21.2,13.2-14.4s-14.1,11.9-14.1,11.9L109.9,85.4z"/>
<path d="M297.5,94.4c0,0-13.3,14.8-21.5,8.5c-14.8-11.4,7.9-32.9-8.4-35.9c-24.9-4.5-17.8-25.2-10.4-21.6c6.2,3,7.8,8.4,7.6,19.4
	c-1,54.7-52.5,46.5-53.3,16.2c-0.6-25,21.5-26,21.5-26s15-0.8,15,11.8c0,13.8-21.4,17.8-22.4,18l-1.4-5.5c0,0,14.4-5,14.1-11.9
	s-15.4-9.4-13.2,14.4s43.7,20.5,31.9-28.9c-3.2-13.4-1.5-0.7,11.2,5.5c3.3,1.6,14.4,2,16.3,5.7c5.3,10.5-14,44.2,10.5,26.5"/>
<path d="M330.6,73.7c-0.1-5.6-1.9-9.9-2.2-9.8c-3.6-11.9-27.9-13.6-33.8,13.4c-5.1,23.6,17.1,39,34.5,14.8
	C329.1,92,330.7,81.7,330.6,73.7z M323.3,91.5c-2.2,5.2-18.5,12.6-16.3-11.2c1.9-19.3,15.6-21.1,18.5-11.4
	C327.1,74.2,325.9,85.5,323.3,91.5z"/>
<path d="M66.7,56.1c1.9-1.1,17.6-0.1,27.5-1.5c2.9-0.4-1.3,7.6-3.3,9.7c0,0-27.6,1.9-29.9,0.6C59.7,64.3,64.8,57.2,66.7,56.1z"/>
<path d="M97.8,83.3c0,0-22.8,9.2-25.8,20.8c-3,11.5,8.9,3.3,8.9,3.3c1.7-6,9.8-15,19.3-17.7C106.2,88,97.8,83.3,97.8,83.3z"/>
</svg>
